<?xml version="1.0" encoding="UTF-8"?>
<svg width="394px" height="400px" viewBox="0 0 394 400" version="1.1" xmlns="http://www.w3.org/2000/svg" xmlns:xlink="http://www.w3.org/1999/xlink">
    <!-- Generator: Sketch 53 (72520) - https://sketchapp.com -->
    <title>prepare-steps</title>
    <desc>Created with Sketch.</desc>
    <defs>
        <polygon id="path-1" points="0 0.40374301 53.748 0.40374301 53.748 20.4 0 20.4"></polygon>
        <polygon id="path-3" points="0.12264 0.3216 8.02584 0.3216 8.02584 9.13896 0.12264 9.13896"></polygon>
        <polygon id="path-5" points="0.96209 0.932943158 27.1216 0.932943158 27.1216 41.9084027 0.96209 41.9084027"></polygon>
        <polygon id="path-7" points="0 0.569625 37.6206988 0.569625 37.6206988 35.86731 0 35.86731"></polygon>
        <polygon id="path-9" points="0.5964 1.11888 18.1394397 1.11888 18.1394397 6 0.5964 6"></polygon>
        <polygon id="path-11" points="0.35496 1.11888 17.8979997 1.11888 17.8979997 6 0.35496 6"></polygon>
        <polygon id="path-13" points="0.69283129 0.609952677 24.6658097 0.609952677 24.6658097 29.760352 0.69283129 29.760352"></polygon>
    </defs>
    <g id="Generation-Global" stroke="none" stroke-width="1" fill="none" fill-rule="evenodd">
        <g id="Generation-GLOBAL-About-V1" transform="translate(-227.000000, -2689.000000)">
            <g id="How-do-we-prepare?" transform="translate(0.000000, 2367.000000)">
                <g id="prepare-steps" transform="translate(227.000000, 322.000000)">
                    <g id="#1" transform="translate(142.000000, 0.000000)">
                        <g id="Group-10">
                            <circle id="Oval" fill="#48A7FF" cx="59.4" cy="61.4" r="50.4"></circle>
                            <g id="#1">
                                <circle id="Oval-2" stroke="#FFFFFF" stroke-width="2.4" fill="#0084FF" cx="22.8" cy="22.8" r="21.6"></circle>
                                <text id="1" font-family="AzoSans-Bold, Azo Sans" font-size="21.6" font-weight="bold" fill="#FFFFFF">
                                    <tspan x="17.8" y="30.4">1</tspan>
                                </text>
                            </g>
                            <g id="Icon" transform="translate(31.800000, 48.800000)" stroke="#FEFEFE" stroke-linecap="round" stroke-linejoin="round" stroke-width="1.92">
                                <path d="M38.865024,22.8158867 L33.698304,18.44462" id="Stroke-1"></path>
                                <path d="M34.11552,25.4647467 L29.90496,21.99248" id="Stroke-2"></path>
                                <g id="Group-15" transform="translate(0.000000, 0.138253)">
                                    <path d="M11.1168,16.1536 C12.6144,20.492 24.68736,29.8860667 24.68736,29.8860667 C27.59808,32.3665333 30.2304,28.5791333 27.83616,26.5394667 L26.00064,24.7472667" id="Stroke-3"></path>
                                    <path d="M26.00064,24.74688 L30.99456,29.1123467 C31.91424,30.0906133 33.45024,30.1331467 34.42368,29.2051467 C35.39712,28.2771467 35.43744,26.73048 34.51584,25.7522133 C34.4448,25.6768133 34.37184,25.6091467 34.29312,25.5434133 L35.55456,26.6164133 C36.672,27.4922133 38.28096,27.2911467 39.15456,26.1659467 C39.97248,25.10648 39.84768,23.58688 38.86464,22.6782133 L39.05856,22.8425467 C40.176,23.72028 41.78688,23.5211467 42.65856,22.39788 C43.48032,21.3345467 43.35552,19.8130133 42.36864,18.9043467 L30.01152,8.75628 C29.11872,9.10428 28.18944,9.34014667 27.23904,9.45808 C26.8896,9.46581333 26.56512,9.63401333 26.35584,9.91434667 C25.39584,11.2251467 22.656,14.5466133 20.54592,12.9980133 C17.94624,11.08788 20.54592,2.95628 27.8592,1.79434667 C27.8592,1.79434667 31.15008,0.848946667 39.21024,5.03268 L42.19968,4.12208" id="Stroke-5"></path>
                                    <polygon id="Stroke-7" points="0.96 18.62498 6.096 0.362713333 14.85504 2.85864667 9.71904 21.1228467"></polygon>
                                    <polygon id="Stroke-9" points="42.15936 3.3472 50.9184 0.849333333 56.0544 19.1116 47.29728 21.6094667"></polygon>
                                    <path d="M14.508672,4.08902 C14.508672,4.08902 14.934912,3.31375333 24.223872,3.11075333" id="Stroke-11"></path>
                                    <path d="M43.166208,20.19968 C44.395008,20.5380133 45.710208,20.2422133 46.677888,19.41088" id="Stroke-13"></path>
                                </g>
                            </g>
                        </g>
                    </g>
                    <g id="#2" transform="translate(289.000000, 69.000000)">
                        <circle id="Oval" fill="#48A7FF" cx="54.5" cy="65.5" r="50.5"></circle>
                        <g id="Group-11" transform="translate(28.000000, 39.000000)">
                            <g id="Group-3" transform="translate(0.000000, 33.600000)">
                                <mask id="mask-2" fill="white">
                                    <use xlink:href="#path-1"></use>
                                </mask>
                                <g id="Clip-2"></g>
                                <path d="M36.51288,0.46392 C35.87928,0.38952 35.31288,0.80952 35.22408,1.43352 C35.13528,2.05512 35.56728,2.63112 36.19128,2.71992 C45.18648,3.99432 51.46728,7.02552 51.46728,10.09512 C51.46728,13.88952 41.36808,18.11832 26.87448,18.11832 C12.37848,18.11832 2.27928,13.89192 2.27928,10.09512 C2.27928,7.46472 7.62408,4.07112 17.83608,2.67672 C18.46248,2.59272 18.89688,2.01912 18.81288,1.39752 C18.72888,0.77112 18.15288,0.30792 17.52888,0.42072 C6.71688,1.89432 -0.00072,5.59992 -0.00072,10.09512 C-0.00072,16.78872 13.84728,20.40072 26.87448,20.40072 C39.90168,20.40072 53.74968,16.78872 53.74968,10.09512 C53.74728,5.65752 47.14488,1.96632 36.51288,0.46392" id="Fill-1" fill="#FEFEFE" mask="url(#mask-2)"></path>
                            </g>
                            <path d="M25.26,28.74 L25.26,45.66 C25.26,46.2888 25.7712,46.8 26.4024,46.8 C27.0288,46.8 27.54,46.2888 27.54,45.66 L27.54,28.74 C27.54,28.1112 27.0288,27.6 26.4024,27.6 C25.7712,27.6 25.26,28.1088 25.26,28.74" id="Fill-4" fill="#FEFEFE"></path>
                            <g id="Group-8" transform="translate(22.800000, 0.000000)">
                                <mask id="mask-4" fill="white">
                                    <use xlink:href="#path-3"></use>
                                </mask>
                                <g id="Clip-7"></g>
                                <path d="M4.07544,2.60136 C4.99704,2.60136 5.74584,3.35256 5.74584,4.27416 C5.74584,5.38536 4.79304,6.85896 4.07544,6.85896 C3.35544,6.85896 2.40264,5.38536 2.40264,4.27416 C2.40264,3.35256 3.15144,2.60136 4.07544,2.60136 M4.07544,9.13896 C6.44904,9.13896 8.02584,6.21096 8.02584,4.27416 C8.02584,2.09736 6.25224,0.32136 4.07544,0.32136 C1.89624,0.32136 0.12264,2.09736 0.12264,4.27416 C0.12264,6.21096 1.69704,9.13896 4.07544,9.13896" id="Fill-6" fill="#FEFEFE" mask="url(#mask-4)"></path>
                            </g>
                            <path d="M19.7606887,26.0269174 C20.049534,26.2876277 20.3806495,26.3631607 20.6906299,26.3680338 L21.7262462,45.7020244 C21.7591229,46.3403994 22.2546219,46.8642567 22.9004144,46.7935969 C23.5180269,46.7594852 23.9876942,46.213699 23.9501208,45.575324 L22.8651894,25.2837709 C22.8534477,24.9645834 22.6702774,24.5601168 22.4401405,24.3530104 C22.1583401,24.0971731 21.8342697,24.0192036 21.5336826,24.0070209 C21.2260506,14.399721 21.7168529,11.5026681 21.8788881,10.7717043 C22.0620583,10.7643947 22.2710603,10.7570851 22.4636238,10.7473389 L23.1892598,10.8496738 C23.7646022,12.0094696 24.9951305,12.7282506 26.401784,12.7282506 C27.8060891,12.7282506 29.0366174,12.0094696 29.7293766,10.7181003 L30.3399441,10.7473389 C30.513721,10.7546485 30.7062846,10.7619581 30.8706681,10.7668312 C31.1078501,11.6780994 31.5657757,14.6847968 31.267537,24.0045844 C30.9646016,24.0167671 30.6452278,24.0971731 30.3610791,24.3505739 C30.1332905,24.5552437 29.9501202,24.9475276 29.9360302,25.261842 L28.8487505,45.5728875 C28.8111771,46.2112624 29.2831927,46.7570487 29.9008052,46.7911603 C29.9219402,46.7935969 29.9430752,46.7935969 29.9618619,46.7935969 C30.5512944,46.7935969 31.0420967,46.3184705 31.0749734,45.6995878 L32.1129381,26.3655972 C32.4229185,26.3582876 32.7516856,26.2827547 33.0428793,26.0244808 C33.2753646,25.8149379 33.4561865,25.4202175 33.4655798,25.10103 C33.9986522,10.2405374 32.8080456,9.21231504 32.3031533,8.77373681 C32.1810398,8.67140189 32.0401396,8.59343242 31.8851494,8.5495746 C31.6925858,8.49353405 31.4741906,8.47404168 30.4315292,8.43018386 L29.8726251,8.4058184 C28.9098072,8.33759512 28.0831928,8.87363518 27.6323122,9.78733984 C27.16969,10.7083541 25.6291813,10.7059176 25.173604,9.78733984 C24.7156784,8.87363518 23.8585357,8.34490475 22.9309428,8.4058184 L22.3720387,8.43018386 C21.327029,8.47891477 21.1086337,8.49840714 20.9160702,8.55201114 C20.7634283,8.59586897 20.6178314,8.67627498 20.4957179,8.78104645 C19.9884773,9.22206123 18.8002191,10.2527201 19.3356398,25.1059031 C19.3473815,25.4250905 19.525855,25.8173744 19.7606887,26.0269174" id="Fill-9" fill="#FEFEFE"></path>
                        </g>
                        <g id="#1-copy-7">
                            <circle id="Oval-2" stroke="#FFFFFF" stroke-width="2.4" fill="#0084FF" cx="22.8" cy="22.8" r="21.6"></circle>
                            <text id="2" font-family="AzoSans-Bold, Azo Sans" font-size="21.6" font-weight="bold" fill="#FFFFFF">
                                <tspan x="17.8" y="30.4">2</tspan>
                            </text>
                        </g>
                    </g>
                    <g id="#3" transform="translate(289.000000, 212.000000)">
                        <circle id="Oval" fill="#48A7FF" cx="54.5" cy="59.5" r="50.5"></circle>
                        <g id="Group-21" transform="translate(28.000000, 31.000000)">
                            <path d="M45.6024,32.4 C44.9712,32.4 44.46,32.8897848 44.46,33.4973952 L44.4576,51.7026048 C44.4576,52.3102152 44.9688,52.8 45.6,52.8 C46.2288,52.8 46.74,52.3102152 46.74,51.7026048 L46.7424,33.4973952 C46.7424,32.8897848 46.2312,32.4 45.6024,32.4" id="Fill-1" fill="#FEFEFE"></path>
                            <path d="M46.1633912,4.68399699 C46.177704,4.68399699 46.1920169,4.68399699 46.2063298,4.68399699 C46.7048947,4.68399699 47.1796048,4.87633358 47.5398119,5.22734786 C47.9119465,5.58797896 48.124254,6.07362885 48.133796,6.57370398 L48.133796,6.68910594 C48.133796,8.02103681 47.0484035,9.71600301 46.2039443,9.71600301 C45.3523287,9.71600301 44.2669362,8.02103681 44.2669362,6.66987228 C44.2478524,5.59519159 45.099468,4.70323065 46.1633912,4.68399699 M46.2039443,12 C48.7253945,12 50.4,8.80480841 50.4,6.68910594 L50.4,6.54966191 C50.3785307,5.41968445 49.9205189,4.36664162 49.1118419,3.58287002 C48.3246342,2.81833208 47.2964932,2.4 46.2063298,2.4 C46.177704,2.4 46.1490783,2.4 46.1180671,2.4 C43.8089244,2.44567994 41.9577936,4.37866266 42.0007322,6.68910594 C42.0007322,8.80480841 43.6777232,12 46.2039443,12" id="Fill-3" fill="#FEFEFE"></path>
                            <g id="Group-7" transform="translate(26.400000, 10.800000)">
                                <mask id="mask-6" fill="white">
                                    <use xlink:href="#path-5"></use>
                                </mask>
                                <g id="Clip-6"></g>
                                <path d="M25.32139,3.11795368 C21.84839,2.31761684 21.22509,2.89285895 20.91459,3.49765895 C20.68689,3.94102737 20.13029,4.06608 19.81519,4.09791158 C18.87679,4.20477474 17.83029,3.81370105 17.31509,3.19525895 C16.27319,1.80603789 14.61489,0.960227368 12.85079,0.932943158 L2.05459,0.932943158 C1.44969,0.932943158 0.96209,1.41496421 0.96209,2.01294316 L0.96209,3.42490105 C0.96209,3.84780632 1.21279,4.23205895 1.60149,4.40713263 L11.48459,8.87492211 C12.66219,9.40469053 13.41659,10.5665432 13.41659,11.8443537 L13.41889,19.6931116 L13.41889,19.6953853 L14.58959,40.8793011 C14.62409,41.4750063 15.09559,41.9888589 15.73959,41.8979116 C16.34219,41.86608 16.80449,41.3567747 16.76999,40.7610695 L15.60159,19.6362695 L15.60159,19.6339958 L15.60159,11.8443537 C15.60159,9.72073263 14.34809,7.79264842 12.39539,6.91045895 L3.94749,3.09294316 L12.83239,3.09294316 C13.90189,3.10885895 14.92079,3.62953263 15.59239,4.52536421 C16.60669,5.73951158 18.41909,6.42389053 20.06129,6.24654316 C21.15149,6.12603789 22.05539,5.63492211 22.60969,4.88460632 C22.98459,4.89370105 23.66079,4.98464842 24.38069,5.12561684 C24.61989,5.89412211 25.15349,8.73622737 24.83609,18.3834695 C24.50259,18.3834695 24.13919,18.4471326 23.83329,18.71088 C23.60789,18.9018695 23.42389,19.2838484 23.40779,19.57488 L22.23939,40.7610695 C22.20489,41.3567747 22.66719,41.86608 23.26749,41.8979116 C23.29049,41.9001853 23.30889,41.9001853 23.32959,41.9001853 C23.90459,41.9001853 24.38759,41.4545432 24.41749,40.8793011 L25.53989,20.5934905 C25.87569,20.6662484 26.25059,20.5411958 26.56569,20.2706274 C26.79569,20.0750905 26.97509,19.6953853 26.98659,19.3975326 C27.57309,3.44991158 26.11259,3.23163789 25.32139,3.11795368" id="Fill-5" fill="#FEFEFE" mask="url(#mask-6)"></path>
                            </g>
                            <g id="Group-10">
                                <mask id="mask-8" fill="white">
                                    <use xlink:href="#path-7"></use>
                                </mask>
                                <g id="Clip-9"></g>
                                <path d="M36.5142282,33.65856 L4.46152235,33.65856 C4.44754588,33.65856 4.43589882,33.646935 4.43589882,33.632985 L4.43589882,4.970385 C4.43589882,4.956435 4.44754588,4.94481 4.46152235,4.94481 L36.5142282,4.94481 C37.1268635,4.94481 37.6206988,4.449585 37.6206988,3.840435 C37.6206988,3.231285 37.1268635,2.73606 36.5142282,2.73606 L26.5653106,2.73606 L26.5653106,1.673535 C26.5653106,1.06206 26.0714753,0.56916 25.45884,0.56916 C24.8485341,0.56916 24.3523694,1.06206 24.3523694,1.673535 L24.3523694,2.73606 L1.10716941,2.73606 C0.494534118,2.73606 -0.00163058824,3.231285 -0.00163058824,3.840435 C-0.00163058824,4.449585 0.494534118,4.94481 1.10716941,4.94481 L2.22295765,4.94481 L2.22295765,33.65856 L1.10716941,33.65856 C0.494534118,33.65856 -0.00163058824,34.15146 -0.00163058824,34.762935 C-0.00163058824,35.37441 0.494534118,35.86731 1.10716941,35.86731 L36.5142282,35.86731 C37.1268635,35.86731 37.6206988,35.37441 37.6206988,34.762935 C37.6206988,34.15146 37.1268635,33.65856 36.5142282,33.65856" id="Fill-8" fill="#FEFEFE" mask="url(#mask-8)"></path>
                            </g>
                            <path d="M26.4010932,41.8117517 L26.438263,41.8117517 C27.2472517,41.8303769 27.8988157,42.5195122 27.9228667,43.3809313 C27.9163073,44.4216186 27.0526572,45.7882483 26.4010932,45.7882483 C25.7298512,45.7882483 24.8771333,44.4309313 24.8771333,43.3949002 C24.8968114,42.5125277 25.5767993,41.8117517 26.4010932,41.8117517 M26.4010932,48 C28.3929548,48 30,45.4669623 30,43.3692905 C30,41.2949002 28.4082599,39.6 26.4601275,39.6 L26.4010932,39.6 C24.4529608,39.6 22.8459156,41.2599778 22.8,43.3692905 C22.8,45.4669623 24.4070452,48 26.4010932,48" id="Fill-11" fill="#FEFEFE"></path>
                            <g id="Group-15" transform="translate(18.000000, 48.000000)">
                                <mask id="mask-10" fill="white">
                                    <use xlink:href="#path-9"></use>
                                </mask>
                                <g id="Clip-14"></g>
                                <path d="M15.2052,1.15248 C15.042,1.13088 14.8812,1.11888 14.718,1.11888 L12.2364,1.11888 C11.886,1.11888 11.5548,1.27968 11.3412,1.55568 C10.9116,2.10288 10.2924,2.44848 9.6036,2.53008 C8.9028,2.61888 8.2308,2.42208 7.6788,1.98768 C7.518,1.86288 7.3716,1.71888 7.2468,1.55568 C7.0284,1.27968 6.6972,1.11888 6.3492,1.11888 L4.0188,1.11888 L4.0116,1.11888 C3.102,1.11888 2.2452,1.47408 1.5996,2.11728 C0.954,2.76528 0.5964,3.62208 0.5964,4.53648 C0.5964,4.70208 0.6084,4.86288 0.6324,5.02368 C0.7236,5.64768 1.2996,6.00288 1.9188,5.90928 C2.5428,5.81808 2.9676,5.16048 2.8764,4.53648 C2.8764,4.23168 2.9964,3.94848 3.21,3.73008 C3.426,3.51648 3.7092,3.39888 4.014,3.39888 L4.0164,3.39888 L5.8404,3.39888 C5.9772,3.53808 6.1212,3.66288 6.2724,3.78288 C7.2972,4.59168 8.5764,4.94208 9.8724,4.79568 C10.9716,4.66368 11.9724,4.17408 12.7452,3.40128 L14.8788,3.41088 C15.5004,3.49968 15.9348,4.07568 15.846,4.69968 C15.7548,5.32368 16.1916,5.89968 16.8156,5.98848 C16.866,5.99568 16.9236,6.00048 16.9764,6.00048 C17.5356,6.00048 18.0228,5.59008 18.1044,5.02128 C18.234,4.11648 18.0012,3.21648 17.454,2.48688 C16.9068,1.75488 16.1076,1.28208 15.2052,1.15248" id="Fill-13" fill="#FEFEFE" mask="url(#mask-10)"></path>
                            </g>
                            <path d="M8.4,41.8117517 L8.43718104,41.8117517 C9.24641555,41.8303769 9.8981774,42.5195122 9.92442284,43.3809313 C9.91567436,44.4216186 9.05176185,45.7882483 8.4,45.7882483 C7.72855407,45.7882483 6.87557716,44.4309313 6.87557716,43.3949002 C6.89526124,42.5125277 7.57545565,41.8117517 8.4,41.8117517 M8.4,48 C10.3946537,48 12,45.4669623 12,43.3692905 L12,43.3413525 C11.9540705,41.2925721 10.4099635,39.6488914 8.48311057,39.6 C6.50595383,39.6465632 4.84592953,41.2297118 4.8,43.3692905 C4.8,45.4669623 6.40534629,48 8.4,48" id="Fill-16" fill="#FEFEFE"></path>
                            <g id="Group-20" transform="translate(0.000000, 48.000000)">
                                <mask id="mask-12" fill="white">
                                    <use xlink:href="#path-11"></use>
                                </mask>
                                <g id="Clip-19"></g>
                                <path d="M14.96376,1.15248 C14.80296,1.13088 14.63976,1.11888 14.47656,1.11888 L11.99736,1.11888 C11.64696,1.11888 11.31576,1.27968 11.10216,1.55328 C10.67016,2.10288 10.05336,2.44848 9.36216,2.53008 C8.67576,2.61888 7.98936,2.42208 7.43736,1.98768 C7.27896,1.86288 7.13016,1.71888 7.00536,1.55568 C6.78936,1.27968 6.45576,1.11888 6.10776,1.11888 L3.77736,1.11888 L3.77016,1.11888 C2.86056,1.11888 2.00376,1.47408 1.35816,2.11728 C0.71256,2.76528 0.35496,3.62208 0.35496,4.53648 C0.35496,4.70208 0.36696,4.86288 0.39096,5.02368 C0.48216,5.64768 1.06536,6.00288 1.67736,5.90928 C2.30136,5.81808 2.72616,5.16048 2.63496,4.53648 C2.63496,4.23168 2.75496,3.94848 2.96856,3.73008 C3.18456,3.51648 3.47016,3.39888 3.77256,3.39888 L3.77496,3.39888 L5.59896,3.39888 C5.73576,3.53808 5.87976,3.66288 6.03096,3.78288 C7.05816,4.59168 8.33256,4.94208 9.63096,4.79568 C10.73256,4.66368 11.73336,4.17408 12.50616,3.40128 L14.63736,3.41088 C15.25896,3.49968 15.69576,4.07568 15.60696,4.69968 C15.51576,5.32368 15.94776,5.89968 16.57176,5.98848 C16.62696,5.99568 16.68216,6.00048 16.73496,6.00048 C17.29416,6.00048 17.78136,5.59008 17.86296,5.02128 C17.99256,4.11648 17.75976,3.21648 17.21256,2.48688 C16.66536,1.75488 15.86376,1.28208 14.96376,1.15248" id="Fill-18" fill="#FEFEFE" mask="url(#mask-12)"></path>
                            </g>
                        </g>
                        <g id="#1-copy-7">
                            <circle id="Oval-2" stroke="#FFFFFF" stroke-width="2.4" fill="#0084FF" cx="22.8" cy="22.8" r="21.6"></circle>
                            <text id="3" font-family="AzoSans-Bold, Azo Sans" font-size="21.6" font-weight="bold" fill="#FFFFFF">
                                <tspan x="16.8" y="30.4">3</tspan>
                            </text>
                        </g>
                    </g>
                    <g id="#4" transform="translate(142.000000, 286.000000)">
                        <g id="iconmonstr-idea-15">
                            <circle id="Oval" fill="#48A7FF" cx="59.5" cy="63.5" r="50.5"></circle>
                            <g id="#1-copy-7">
                                <circle id="Oval-2" stroke="#FFFFFF" stroke-width="2.4" fill="#0084FF" cx="22.8" cy="22.8" r="21.6"></circle>
                                <text id="4" font-family="AzoSans-Bold, Azo Sans" font-size="21.6" font-weight="bold" fill="#FFFFFF">
                                    <tspan x="15.8" y="30.4">4</tspan>
                                </text>
                            </g>
                            <g id="Group-8" transform="translate(33.000000, 38.000000)">
                                <path d="M15.0814995,20.3230162 C11.4432081,19.2258351 9.32543068,14.0805128 8.53439865,11.7490028 C12.5944219,11.2415566 20.2972958,11.1958407 21.908995,15.3834153 C21.9067154,15.4154165 21.9112747,15.4405602 21.9112747,15.4748471 C21.9044358,15.6714254 21.8998765,15.8657179 21.9021562,16.0462956 C19.059456,14.6633902 15.1795237,14.377666 14.6278529,14.3433791 C14.0123525,14.3159495 13.5153929,14.7616794 13.4789188,15.3605574 C13.4424447,15.9594354 13.8960913,16.4737391 14.4933547,16.5103118 C15.8520149,16.5926004 19.5837712,17.1023325 21.5716096,18.3435186 C19.1871154,20.2270129 17.0077879,20.9058937 15.0814995,20.3230162 M40.1050115,2.38639052 C40.2691449,5.73050718 40.2782635,15.1799797 35.4750805,18.4898094 C32.956088,20.2224413 29.3383132,19.9870045 24.7266192,17.8383581 C25.451542,16.5148834 27.0085301,14.1422292 29.3155169,13.2873422 C33.1635344,11.8632925 36.596659,9.00147843 36.7448351,8.88033135 C37.2007613,8.49631795 37.2623114,7.81057974 36.8793333,7.35113514 C36.4895164,6.88940475 35.8079066,6.8299741 35.3565396,7.2139875 C35.3200655,7.24141703 32.053354,9.95922613 28.5655182,11.2506997 C26.6369502,11.9661533 25.1711473,13.4267757 24.1293559,14.8028237 C24.5351302,11.081551 27.2843655,5.06534112 40.1050115,2.38639052 M24.4940969,20.0990084 C27.076919,21.2259049 29.4226596,21.8179255 31.4948444,21.8179255 C33.4712846,21.8179255 35.2129229,21.3059077 36.7038017,20.2773004 C43.5996862,15.5274204 42.2387463,1.56350467 42.1771963,0.971484017 C42.1452814,0.669759206 41.9902665,0.395463923 41.7486256,0.214886195 C41.5092643,0.0343084665 41.1969548,-0.0342653542 40.9051621,0.0160221143 C28.041203,2.38181893 23.7418186,7.95458476 22.4264713,12.3250229 C17.9583941,7.89515412 7.45385344,9.70321719 6.93865679,9.79236316 C6.64230473,9.84722222 6.38242677,10.0186568 6.21829332,10.2746657 C6.0564395,10.5283888 6.00628762,10.8392568 6.07923582,11.1318385 C6.17725996,11.5181377 8.56859311,20.6201695 14.4523213,22.3985172 C15.1179736,22.6019529 15.7950241,22.7025278 16.4857524,22.7025278 C18.3573296,22.7025278 20.3223717,21.9322152 22.3512435,20.4578781 C22.5244955,21.9299294 22.8596013,24.0077162 23.5434906,26.1997927 C23.905952,27.372405 23.9971372,28.9724608 23.8079279,30.9519585 C23.7509371,31.5508365 24.1863466,32.0834265 24.7813304,32.1382856 C24.8178045,32.1405713 24.8542786,32.1428571 24.8861934,32.1428571 C25.4378642,32.1428571 25.9097478,31.7245568 25.9621794,31.1622515 C26.1787443,28.8901722 26.0579239,26.9998206 25.6065569,25.552913 C24.9637009,23.4796978 24.6491118,21.4750564 24.4940969,20.0990084" id="Fill-1" fill="#FEFEFE"></path>
                                <path d="M21.9756214,47.5235631 C21.9756214,47.749682 21.7426999,47.9344907 21.463194,47.9344907 L16.7162537,47.9344907 C16.4367478,47.9344907 16.2038263,47.749682 16.2038263,47.5235631 L16.210814,46.6256101 C16.243423,44.0252427 16.2713736,41.7792732 13.2177726,39.9703219 C7.27361559,36.4415624 7.24333579,36.3937295 5.55232562,33.8520661 C5.00728929,33.032385 4.30386632,31.9713655 3.21845208,30.4972442 C2.17962214,29.084001 2.19126822,28.0055877 2.22154802,25.4073945 L2.23086488,23.891963 C2.23086488,23.5614815 2.5126999,23.4919065 2.7432922,23.4919065 C2.97854293,23.4919065 3.25804874,23.5614815 3.25804874,23.891963 L3.25804874,27.5533499 C3.25804874,28.4556513 3.54920063,29.3275137 4.10122461,30.0841423 C7.01507271,34.0433974 7.2899201,34.276039 7.79303056,34.6978377 C7.81632271,34.7174057 7.96073405,34.8369878 7.9840262,34.8543816 C10.0779906,36.3480709 11.7992806,36.6698555 12.703016,35.7349408 C13.5974346,34.8043745 12.9266207,33.180232 12.085774,31.8256928 L9.56556326,29.0209486 C9.37922605,28.8557079 9.41183506,28.8209203 9.49568681,28.7426484 C9.61214756,28.6274147 10.0383939,28.3860763 10.4576526,28.7600422 C13.6673111,31.6256645 14.587351,32.6345027 15.0834739,33.1780578 C15.6541316,33.8042332 15.842798,33.9912162 17.3032159,34.9913575 C17.3544586,35.0283192 17.4103598,35.0609325 17.4685901,35.0870232 C21.6402144,37.0155565 21.9732922,39.6050529 21.9732922,42.7859371 L21.9732922,47.5235631 L21.9756214,47.5235631 Z M18.5423583,33.2802461 C17.3055451,32.4279518 17.2170349,32.3322861 16.7721548,31.8430865 C16.2504106,31.2712666 15.2791279,30.2080729 11.987947,27.2728755 C10.6859157,26.1053192 8.85282344,26.3879679 7.89784524,27.3163599 C6.94286705,28.2491004 7.00342664,29.5927685 7.95141719,30.4320176 L10.2736447,32.9997717 C10.4739572,33.328079 10.6602944,33.7194386 10.7790843,34.0412232 C10.4273729,33.9020731 9.9265916,33.6368182 9.27674059,33.1650124 C8.95065047,32.8932349 8.69210759,32.6736387 5.92500004,28.9122376 C5.62453129,28.5078326 5.46847388,28.0382011 5.46847388,27.5555242 L5.46847388,23.8941372 C5.46847388,22.4874167 4.29687868,21.4285714 2.7432922,21.4285714 C1.18970572,21.4285714 0.0181105204,22.4874167 0.0181105204,23.8941372 L0.00879365991,25.3878265 C-0.0238153516,28.1816996 -0.0401198574,29.7188733 1.39700587,31.6713231 C2.45214031,33.1063085 3.13925877,34.1412373 3.67497824,34.9435246 C5.60589757,37.8504571 5.83881908,38.0417885 12.0298728,41.7162208 C14.0399855,42.9076935 14.0260102,44.0687271 13.9980596,46.6038679 L13.991072,47.5235631 C13.991072,48.8889734 15.2139099,50 16.7139244,50 L21.463194,50 C22.9655378,50 24.1860465,48.8889734 24.1860465,47.5235631 L24.1860465,42.7859371 C24.1860465,39.3158816 23.7504833,35.7240697 18.5423583,33.2802461 L18.5423583,33.2802461 Z" id="Fill-3" fill="#FEFEFE"></path>
                                <g id="Group-7" transform="translate(26.604651, 20.238095)">
                                    <mask id="mask-14" fill="white">
                                        <use xlink:href="#path-13"></use>
                                    </mask>
                                    <g id="Clip-6"></g>
                                    <path d="M21.4754613,9.86682934 C20.4019307,11.368604 19.7000956,12.4555605 19.1575586,13.2896332 C17.4837742,15.8805827 17.4560702,15.9316031 11.5643493,19.529651 C8.53999408,21.3752588 8.5676981,23.6689589 8.59540211,26.3220201 L8.60232812,27.2381692 C8.60232812,27.4666519 8.37376998,27.6574238 8.09672981,27.6574238 L3.39166427,27.6574238 C3.11693277,27.6574238 2.88375729,27.4644336 2.88375729,27.2381692 L2.88375729,22.4023218 C2.88375729,19.1569802 3.21158816,16.5172286 7.34872135,14.5496155 C7.40412939,14.5207779 7.46415476,14.489722 7.51263679,14.4520112 C8.957863,13.4293848 9.14717378,13.2408311 9.71279746,12.6019669 C10.2045438,12.0473972 11.1187763,11.0181159 14.3001209,8.09442473 C14.466345,7.9413635 14.6325691,7.88812482 14.7826326,7.88812482 C15.0042647,7.88812482 15.1843408,8.00569358 15.2559095,8.07446022 C15.3344042,8.15653653 15.3667256,8.19202899 15.1012288,8.44491275 L12.5732372,11.3819136 C11.8552414,12.6041852 11.1857277,14.259021 12.0768736,15.2084442 C12.9726368,16.1578675 14.6764338,15.8339988 16.7519264,14.3100414 C16.7796304,14.2945135 16.9204592,14.1680716 16.9458545,14.1503253 C17.4445268,13.717761 17.7169497,13.4804052 20.6027848,9.44313812 C21.1499391,8.67561372 21.4385226,7.78386572 21.4385226,6.86328009 L21.4385226,3.12769891 C21.4385226,2.45334221 22.4566452,2.45334221 22.4566452,3.12769891 L22.4658799,4.67162082 C22.4935839,7.32468205 22.5074359,8.42272996 21.4754613,9.86682934 M24.6568059,4.64721976 L24.6452626,3.12548063 C24.6452626,1.69025436 23.4863112,0.609952677 21.9464296,0.609952677 C20.406548,0.609952677 19.2452879,1.69025436 19.2452879,3.12548063 L19.2452879,6.86106182 C19.2452879,7.35130139 19.0906072,7.83266785 18.7950977,8.24526767 C16.0547087,12.0784531 15.7984465,12.3024993 15.426751,12.6330228 C14.8057192,13.0855516 14.3185903,13.3428719 13.9769074,13.4826235 C14.0831061,13.1720645 14.2377869,12.8171399 14.3716896,12.5686927 L16.7034444,9.87792073 C17.728493,8.9373706 17.7862097,7.56203786 16.8373471,6.61483289 C15.8954106,5.66540964 14.0738715,5.38146998 12.783326,6.56824904 C9.52348668,9.56514345 8.56077209,10.6498817 8.04363044,11.2310707 C7.60267484,11.7301834 7.51494545,11.8277876 6.28904271,12.6973529 C1.12686089,15.1929163 0.69283129,18.8575126 0.69283129,22.3978852 L0.69283129,27.2337326 C0.69283129,28.6268116 1.90257336,29.760352 3.39166427,29.760352 L8.09672981,29.760352 C9.58582072,29.760352 10.7955628,28.6268116 10.7955628,27.2337326 L10.7886368,26.297619 C10.7586241,23.7066696 10.7470808,22.5265454 12.74177,21.3064922 C18.8782097,17.5576013 19.1090765,17.3646111 21.0206537,14.4009908 C21.5493387,13.582446 22.2327044,12.5243271 23.2785311,11.0602632 C24.7052879,9.06824904 24.6914359,7.49770778 24.6568059,4.64721976" id="Fill-5" fill="#FEFEFE" mask="url(#mask-14)"></path>
                                </g>
                            </g>
                        </g>
                    </g>
                    <g id="#5" transform="translate(0.000000, 210.000000)">
                        <g id="iconmonstr-user-29" transform="translate(10.000000, 11.000000)">
                            <circle id="Oval" fill="#48A7FF" cx="50.5" cy="50.5" r="50.5"></circle>
                            <g id="Group-17" transform="translate(26.000000, 24.000000)" stroke="#FEFEFE" stroke-linecap="round" stroke-linejoin="round" stroke-width="2.21886792">
                                <path d="M43.9793692,47.0172414 L43.9793692,36.5331781 L48.9119497,36.5331781 L45.0789737,26.5709459 L45.8345007,22.4262579 C46.051053,15.5001346 45.5313274,15.8921322 45.4302697,15.8022474 C45.1583762,15.7173562 44.8768582,15.6724138 44.5833095,15.6724138 L42.2421384,18.2940538 L39.9033734,15.6724138 C39.6074185,15.6724138 39.3234944,15.7173562 39.0564132,15.8022474 C38.9553554,15.8921322 38.4308176,15.5001346 38.6497761,22.4262579 L39.405303,26.5709459 L35.572327,36.5331781 L40.5049076,36.5331781 L40.5049076,47.0172414" id="Stroke-1"></path>
                                <path d="M24.4559748,53.7339901 L24.4559748,34.703202" id="Stroke-3"></path>
                                <path d="M27.7908805,3.37248224 C27.7908805,5.23401343 26.2986598,7.8362069 24.457196,7.8362069 C22.6132899,7.8362069 21.1210692,5.23401343 21.1210692,3.37248224 C21.1210692,1.51095105 22.6132899,0 24.457196,0 C26.2986598,0 27.7908805,1.51095105 27.7908805,3.37248224 Z" id="Stroke-5"></path>
                                <path d="M44.4654088,10.244453 C44.4654088,11.5755733 43.4686521,13.4334975 42.2409953,13.4334975 C41.0133385,13.4334975 40.0188679,11.5755733 40.0188679,10.244453 C40.0188679,8.91568438 41.0133385,7.8362069 42.2409953,7.8362069 C43.4686521,7.8362069 44.4654088,8.91568438 44.4654088,10.244453 Z" id="Stroke-7"></path>
                                <path d="M19.8987634,53.7339901 L18.5066048,30.2924459 C18.4859802,29.802309 16.8617952,30.4424877 16.8437487,29.9773579 C16.1837624,12.7925603 17.6558412,11.4571875 17.8208378,11.3221498 C18.0193493,11.2696352 19.6254878,11.2271233 20.1050091,11.1971149 C20.7546831,11.1596044 21.3167027,11.5422113 21.6131809,12.1048683 C22.6727683,14.0979248 26.2382411,14.0979248 27.2952504,12.1048683 C27.5943067,11.5422113 28.1563263,11.1596044 28.8060003,11.1971149 C29.2880997,11.2271233 30.8942382,11.2696352 31.0901716,11.3221498 C31.2551682,11.4571875 32.7298251,12.7925603 32.0672607,29.9773579 C32.0492142,30.4424877 30.4250292,29.802309 30.4044046,30.2949466 L29.0096679,53.7339901" id="Stroke-9"></path>
                                <path d="M5.5581761,47.0172414 L5.5581761,32.4642857" id="Stroke-11"></path>
                                <path d="M8.89308176,9.12499483 C8.89308176,10.4561152 7.64798521,12.3140394 6.11535003,12.3140394 C4.58000221,12.3140394 3.33490566,10.4561152 3.33490566,9.12499483 C3.33490566,7.79622625 4.58000221,6.71674877 6.11535003,6.71674877 C7.64798521,6.71674877 8.89308176,7.79622625 8.89308176,9.12499483 Z" id="Stroke-13"></path>
                                <path d="M2.3043805,47.0172414 L1.31006468,29.746554 C1.29533407,29.3854173 0.134071391,29.8546493 0.121795887,29.5131663 C-0.352038569,16.8512712 0.701199677,15.8661296 0.821499617,15.7678611 C0.958985262,15.7285537 2.10797244,15.6966164 2.45168655,15.674506 C2.91570061,15.6450255 3.31588204,15.9300041 3.52947581,16.3451885 C4.28564686,17.8118457 6.83158639,17.8118457 7.58775744,16.3451885 C7.79889611,15.9300041 8.19907754,15.6450255 8.6655467,15.6769627 C9.00680571,15.6966164 10.1557929,15.7285537 10.2981887,15.7678611 C10.4160336,15.8661296 11.4668167,16.8512712 10.9954374,29.5131663 C10.9807068,29.8546493 9.82189918,29.3854173 9.80716857,29.746554 L8.81039765,47.0172414" id="Stroke-15"></path>
                            </g>
                        </g>
                        <g id="#1-copy-7">
                            <circle id="Oval-2" stroke="#FFFFFF" stroke-width="2.4" fill="#0084FF" cx="22.8" cy="22.8" r="21.6"></circle>
                            <text id="5" font-family="AzoSans-Bold, Azo Sans" font-size="21.6" font-weight="bold" fill="#FFFFFF">
                                <tspan x="16.8" y="30.4">5</tspan>
                            </text>
                        </g>
                    </g>
                    <g id="#6" transform="translate(4.000000, 67.000000)">
                        <g id="iconmonstr-coin-3" transform="translate(6.000000, 17.000000)">
                            <circle id="Oval" fill="#48A7FF" cx="50.5" cy="50.5" r="50.5"></circle>
                            <g id="Group-9" transform="translate(21.642857, 19.238095)" fill="#FEFEFE">
                                <path d="M29.6862099,2.32782129 C34.1699074,2.32782129 37.8130643,5.98617621 37.8130643,10.4776461 C37.8130643,12.1365251 37.2975002,13.788053 36.4203081,15.1185867 C33.3904526,15.1259377 30.6806867,16.454021 28.7772533,18.5343581 C24.6991655,18.0271381 21.5593555,14.5966646 21.5593555,10.4800965 C21.5593555,5.98372587 25.2049559,2.32782129 29.6862099,2.32782129 M44.5715969,25.5937824 C44.5715969,30.090153 40.9259965,33.7436073 36.4447425,33.7436073 C31.961045,33.7436073 28.3154446,30.090153 28.3154446,25.5937824 C28.3154446,21.0998622 31.961045,17.4439576 36.4447425,17.4439576 C40.9259965,17.4439576 44.5715969,21.0998622 44.5715969,25.5937824 M27.2940901,20.641649 C26.4926445,22.1241036 25.9941844,23.7927839 25.9941844,25.5937824 C25.9941844,31.3692296 30.6831301,36.0714286 36.4447425,36.0714286 C42.201468,36.0714286 46.8928571,31.3692296 46.8928571,25.5937824 C46.8928571,20.6808544 43.4867131,16.5765379 38.9297127,15.4493823 C39.7018371,13.939974 40.1318812,12.2051346 40.1318812,10.4776461 C40.1318812,4.69974866 35.4429354,0 29.6837665,0 C23.9245976,0 19.2380952,4.702199 19.2380952,10.4776461 C19.2405387,15.3660708 22.6564564,19.5144934 27.2940901,20.641649" id="Fill-1"></path>
                                <path d="M51.9762829,45.2120551 L38.4023922,51.6289724 C36.5420856,52.5073434 27.8118279,53.5097494 17.597231,48.7761654 C15.8736398,47.9762657 13.5665667,48.5154386 11.5939581,49.0672682 L11.5939581,41.1264912 C17.5264319,40.2658396 23.3124249,40.6708521 24.9993958,41.1872431 L37.8286756,45.0880201 C38.4048336,45.2626817 38.7319741,45.604411 38.9053098,45.9917043 C38.9150751,46.0296742 38.9126338,46.0701754 38.9297232,46.1081454 C38.9370473,46.1233333 38.9516954,46.1334586 38.9590194,46.1486466 C39.0810868,46.5308772 39.0762041,46.9485464 38.9761088,47.315589 C38.8418347,47.7788221 38.5684038,48.1737093 38.2217325,48.4040602 C37.8433237,48.6521303 37.3843504,48.6926316 36.8619021,48.5382206 L23.3856653,44.4374687 C22.7704458,44.255213 22.1259301,44.617193 21.9452704,45.2525564 C21.7646107,45.8904511 22.1186061,46.5587218 22.7313842,46.7435088 L36.2076211,50.8442607 C36.6226501,50.9708271 37.0327964,51.0341103 37.4405014,51.0341103 C38.1631402,51.0341103 38.8564828,50.831604 39.4619369,50.4341855 C40.2871123,49.8924812 40.9047732,49.0242356 41.1952935,47.9889223 C41.3515397,47.4396241 41.3979253,46.8599499 41.346657,46.290401 L50.4602063,41.9795489 C51.1218114,41.6631328 51.7077347,41.6833835 52.1960042,42.0478947 C52.7208938,42.435188 53.0431517,43.1793985 52.9796767,43.8552632 C52.925967,44.4703759 52.5866197,44.9209524 51.9762829,45.2120551 L51.9762829,45.2120551 Z M2.31683854,52.9047619 L9.27711955,52.9047619 L9.27711955,38.4761905 L2.31683854,38.4761905 L2.31683854,52.9047619 Z M53.5460692,40.0937093 C52.3839879,39.2330576 50.9094142,39.1292732 49.5007568,39.7950125 L40.4531239,44.0729574 C39.9868266,43.5084712 39.3447523,43.0427068 38.4829567,42.7819799 L25.6585596,38.881203 C23.5223807,38.2281203 17.6216444,37.8661404 11.5963994,38.7014787 L11.5963994,37.2738095 C11.5963994,36.6106015 11.0763925,36.0714286 10.4343181,36.0714286 L1.15963994,36.0714286 C0.520006964,36.0714286 0,36.6106015 0,37.2738095 L0,54.1071429 C0,54.7703509 0.520006964,55.3095238 1.15963994,55.3095238 L10.4343181,55.3095238 C11.0763925,55.3095238 11.5963994,54.7703509 11.5963994,54.1071429 L11.5963994,51.5580952 L11.642785,51.5454386 C13.1881578,51.1075188 15.5172031,50.4493734 16.6524296,50.9708271 C22.8192727,53.8312281 28.7468639,54.7678195 33.1168754,54.7678195 C36.0147546,54.7678195 38.2266152,54.3577444 39.3667244,53.8160401 L52.9406151,47.4016541 C54.2980042,46.7586967 55.1573584,45.5512531 55.2916325,44.0881454 C55.4307893,42.5490977 54.7496534,40.9822055 53.5460692,40.0937093 L53.5460692,40.0937093 Z" id="Fill-3"></path>
                                <path d="M34.4979639,19.2473172 L34.4979639,19.6350301 C32.8520417,20.112019 31.6451956,21.5480872 31.6451956,23.257085 C31.6451956,25.8103786 34.2183288,26.6470223 35.3344161,27.0143292 C37.3482792,27.6239568 37.3482792,28.2412366 37.3482792,28.4427452 C37.3482792,29.1926637 36.5780563,29.8252479 35.66311,29.8252479 C34.9738341,29.8252479 33.8651056,29.327853 33.1905473,28.7207762 C32.7073183,28.2820484 31.9714365,28.335614 31.549531,28.8381104 C31.1251725,29.3431575 31.1766842,30.1083803 31.6623662,30.5496589 C32.4473067,31.2587654 33.5045235,31.8020736 34.4955109,32.0673509 L34.4955109,32.4550638 C34.4955109,33.1233584 35.017987,33.6666667 35.66311,33.6666667 C36.3033271,33.6666667 36.8258032,33.1233584 36.8258032,32.4550638 L36.8258032,32.0673509 C38.4717254,31.5878112 39.6785714,30.1568445 39.6785714,28.4427452 C39.6785714,25.8103786 36.9018443,24.963532 36.0114274,24.695704 C34.2183288,24.1115838 33.9730349,23.6601023 33.9730349,23.257085 C33.9730349,22.4969636 34.7309931,21.8771331 35.6655629,21.8771331 C36.2935154,21.8771331 36.872409,22.1679178 37.1667617,22.6347037 C37.5150791,23.1958671 38.243602,23.3438102 38.7758898,22.9867062 C39.3155364,22.62195 39.4627128,21.8694808 39.1119425,21.3108681 C38.5968253,20.4920797 37.7701847,19.9105103 36.8282561,19.6350301 L36.8282561,19.2473172 C36.8282561,18.5790225 36.3057801,18.0357143 35.6655629,18.0357143 C35.0204399,18.0357143 34.4979639,18.5790225 34.4979639,19.2473172" id="Fill-5"></path>
                                <path d="M27.899261,15.4687459 L27.899261,15.6675437 C27.899261,16.3105687 28.3986705,16.8333333 29.0153123,16.8333333 C29.6272647,16.8333333 30.1266742,16.3105687 30.1266742,15.6675437 L30.1266742,15.4712002 C31.4818793,15.0220643 32.4642857,13.8071888 32.4642857,12.3591553 C32.4642857,10.0619361 30.1008831,9.33791939 29.3459073,9.10721576 C27.7914074,8.59426831 27.7914074,8.23348709 27.7914074,8.07886656 C27.7914074,7.55364764 28.349433,7.10696613 29.010623,7.10696613 L29.0129676,7.10696613 L29.0153123,7.10696613 C29.4701735,7.10696613 29.9015882,7.3253983 30.1102617,7.65672799 C30.4502353,8.19912697 31.1419057,8.34638461 31.6530384,7.99542057 C32.1641711,7.64445652 32.3118838,6.92043978 31.9765995,6.38294939 C31.5569079,5.70801854 30.8863393,5.2294312 30.1266742,4.97663892 L30.1266742,4.77538681 C30.1266742,4.12990748 29.6272647,3.60714286 29.0153123,3.60714286 C28.3986705,3.60714286 27.899261,4.12990748 27.899261,4.77538681 L27.899261,4.96682174 C26.5464006,5.41350326 25.5639942,6.63083309 25.5639942,8.07886656 C25.5639942,10.3073655 27.7468591,11.0264737 28.7011298,11.3357147 C29.4021788,11.5516926 30.2368725,11.9026566 30.2368725,12.3591553 C30.2368725,12.8843743 29.6788469,13.3310558 29.0153123,13.3310558 C28.5510725,13.3310558 27.6858983,12.9972718 27.0973923,12.4597814 C26.6354972,12.0425514 25.9321035,12.089183 25.5241352,12.5751332 C25.1185116,13.0610834 25.1700938,13.7973716 25.6319889,14.2195102 C26.2626985,14.793815 27.0973923,15.2306793 27.899261,15.4687459" id="Fill-7"></path>
                            </g>
                        </g>
                        <g id="6">
                            <circle id="Oval-2" stroke="#FFFFFF" stroke-width="2.4" fill="#0084FF" cx="22.8" cy="22.8" r="21.6"></circle>
                            <text font-family="AzoSans-Bold, Azo Sans" font-size="21.6" font-weight="bold" fill="#FFFFFF">
                                <tspan x="16.8" y="30.4">6</tspan>
                            </text>
                        </g>
                    </g>
                    <g id="#7" transform="translate(131.200000, 126.007407)">
                        <g id="Group-9">
                            <ellipse id="Oval" fill="#00C96F" cx="68.8" cy="77.7777778" rx="68.8" ry="68.7777778"></ellipse>
                            <text id="DATA--CENTERED" font-family="AzoSans-Black, Azo Sans" font-size="20" font-weight="700" line-spacing="21" fill="#FFFFFF">
                                <tspan x="34.21" y="70.4325926">DATA-</tspan>
                                <tspan x="14.55" y="91.4325926">CENTERED</tspan>
                            </text>
                            <g id="#1-copy-7">
                                <circle id="Oval-2" stroke="#FFFFFF" stroke-width="2.4" fill="#00AB80" cx="22.8" cy="22.8" r="21.6"></circle>
                                <text id="7" font-family="AzoSans-Bold, Azo Sans" font-size="21.6" font-weight="bold" fill="#FFFFFF">
                                    <tspan x="16.8" y="30.4">7</tspan>
                                </text>
                            </g>
                        </g>
                    </g>
                </g>
            </g>
        </g>
    </g>
</svg>